<svg width="24" height="24" xmlns="http://www.w3.org/2000/svg">
  <path id="svg_1" fill="#11397E" d="m23.41081,12.00727c0.0043,0.43454 -1.1416,0.79182 -1.5809,0.7884c-0.0318,-0.00161 -0.0636,-0.00322 -0.1079,-0.01177l-0.7686,-0.0579l-1.4464,2.81582c-0.0486,0.1171 -0.0769,0.1975 -0.1915,0.198l-0.395,0.0051c-0.2611,-0.0007 -0.234,-0.0496 -0.2036,-0.1929l0.557,-2.50841l-0.011,-0.4223l-0.394,-0.0263c-0.4779,0.00722 -1.0661,-0.11077 -1.5397,-0.22923l-0.6645,0.9923c-0.1075,0.16449 -0.0768,0.19753 -0.1914,0.198c-0.2611,-0.00066 -0.2157,-0.02354 -0.2036,-0.19288l0.1805,-1.18052c-0.0047,-0.05059 0.01,-0.1065 0.0429,-0.1363c-0.0058,-0.01917 -0.0308,-0.03303 -0.024,-0.04528c-0.0057,-0.01917 0.0204,-0.03673 0.0533,-0.06654c-0.05,-0.02771 -0.0672,-0.08523 -0.0718,-0.13583l-0.2146,-1.17539c-0.0196,-0.17095 -0.0571,-0.19174 0.1915,-0.198c0.1146,-0.00048 0.0943,0.03626 0.2035,0.19287l0.7104,1.01802c0.4629,-0.12757 1.0394,-0.2242 1.5105,-0.21917l0.3893,-0.0243l-0.011,-0.4223l-0.6338,-2.51225c-0.0332,-0.14646 -0.0696,-0.19866 0.1915,-0.198l0.395,-0.00512c0.1146,-0.00048 0.1375,0.07622 0.1968,0.20512l1.547,2.81039l0.7662,-0.05553c0.0443,0.00854 0.0828,-0.00209 0.1146,-0.00048c0.4393,0.00342 1.5991,0.35813 1.6033,0.79268zm-21.82164,0.99522c-0.55228,0 -1,-0.44771 -1,-1c0,-0.55228 0.44772,-1 1,-1c0.55229,0 1,0.44772 1,1c0,0.55229 -0.44771,1 -1,1zm2,-0.75c-0.13807,0 -0.25,-0.11193 -0.25,-0.25c0,-0.13807 0.11193,-0.25 0.25,-0.25l1,0c0.13807,0 0.25,0.11193 0.25,0.25c0,0.13807 -0.11193,0.25 -0.25,0.25l-1,0zm2.5,0c-0.13807,0 -0.25,-0.11193 -0.25,-0.25c0,-0.13807 0.11193,-0.25 0.25,-0.25l1,0c0.13807,0 0.25,0.11193 0.25,0.25c0,0.13807 -0.11193,0.25 -0.25,0.25l-1,0zm2.5,0c-0.13807,0 -0.25,-0.11193 -0.25,-0.25c0,-0.13807 0.11193,-0.25 0.25,-0.25l1,0c0.13804,0 0.25004,0.11193 0.25004,0.25c0,0.13807 -0.112,0.25 -0.25004,0.25l-1,0zm2.50004,0c-0.1381,0 -0.25,-0.11193 -0.25,-0.25c0,-0.13807 0.1119,-0.25 0.25,-0.25l1,0c0.138,0 0.25,0.11193 0.25,0.25c0,0.13807 -0.112,0.25 -0.25,0.25l-1,0zm2.5,0c-0.1381,0 -0.25,-0.11193 -0.25,-0.25c0,-0.13807 0.1119,-0.25 0.25,-0.25l1,0c0.138,0 0.25,0.11193 0.25,0.25c0,0.13807 -0.112,0.25 -0.25,0.25l-1,0z" clip-rule="evenodd" fill-rule="evenodd"/>
</svg>